# xmcd
#
# Track frame offsets:
# 183
# 22043
# 37918
# 55850
# 68788
# 79053
# 93655
# 113850
# 125483
# 142430
#
# Disc length: 2066 seconds
#
#
# Revision: 0
# Processed by: cddbd v1.4PL0 Copyright (c) Steve Scherf et al.
# Submitted via: FreeRIP 2.40 
#
DISCID=8e08100a
DTITLE=Jonny Hill - Ruf Teddybär 1-4
DYEAR=1900
DGENRE=Country
TTITLE0=Ruf Teddybär 1-4
TTITLE1=Pack Doch Deinen Koffer Wieder Aus
TTITLE2=Träume Die Jeder Hat
TTITLE3=Mein Bester Freund
TTITLE4=Oh Susanne
TTITLE5=Ein Glas Wein Und Noch Eins
TTITLE6=Dein Erster Brief
TTITLE7=Locker Vom Hocker
TTITLE8=Der Letzte Drink
TTITLE9=Die Letzte Reise
EXTD=
EXTT0=
EXTT1=
EXTT2=
EXTT3=
EXTT4=
EXTT5=
EXTT6=
EXTT7=
EXTT8=
EXTT9=
PLAYORDER=
